HIERARCHY
ROOT newVegas:Hips
{
	OFFSET 0.000000 96.479958 0.000000
	CHANNELS 6 Xposition Yposition Zposition Xrotation Yrotation Zrotation
	JOINT newVegas:Pelvis
	{
		OFFSET 0.000000 0.000000 0.000000
		CHANNELS 3 Xrotation Yrotation Zrotation
		JOINT newVegas:LeftUpLeg
		{
			OFFSET 18.735201 -5.666702 -4.541200
			CHANNELS 3 Xrotation Yrotation Zrotation
			JOINT newVegas:LeftLeg
			{
				OFFSET -0.021200 -31.938179 0.493100
				CHANNELS 3 Xrotation Yrotation Zrotation
				JOINT newVegas:LeftFoot
				{
					OFFSET 0.021200 -31.938179 -4.336299
					CHANNELS 3 Xrotation Yrotation Zrotation
					JOINT newVegas:LeftToeBase
					{
						OFFSET 0.943001 -26.722000 15.023500
						CHANNELS 3 Xrotation Yrotation Zrotation
						End Site
						{
							OFFSET 0.000000 30.670183 0.000000
						}
					}
				}
				JOINT newVegas:Left_PantLeg
				{
					OFFSET 0.663870 -9.044666 -1.108900
					CHANNELS 3 Xrotation Yrotation Zrotation
					End Site
					{
						OFFSET 1.415995 20.635357 0.000000
					}
				}
			}
		}
		JOINT newVegas:RightUpLeg
		{
			OFFSET -18.735201 -5.666702 -4.541200
			CHANNELS 3 Xrotation Yrotation Zrotation
			JOINT newVegas:RightLeg
			{
				OFFSET 0.018946 -31.938133 0.493100
				CHANNELS 3 Xrotation Yrotation Zrotation
				JOINT newVegas:RightFoot
				{
					OFFSET -0.018946 -31.938126 -4.336299
					CHANNELS 3 Xrotation Yrotation Zrotation
					JOINT newVegas:RightToeBase
					{
						OFFSET -0.943001 -26.722004 15.023500
						CHANNELS 3 Xrotation Yrotation Zrotation
						End Site
						{
							OFFSET 0.000000 30.670187 0.000000
						}
					}
				}
				JOINT newVegas:Right_PantLeg
				{
					OFFSET -0.661674 -9.044716 -1.108900
					CHANNELS 3 Xrotation Yrotation Zrotation
					End Site
					{
						OFFSET -1.415958 20.635269 0.000000
					}
				}
			}
		}
	}
	JOINT newVegas:Spine
	{
		OFFSET 0.000000 10.199997 -0.299500
		CHANNELS 3 Xrotation Yrotation Zrotation
		JOINT newVegas:Spine1
		{
			OFFSET 0.000000 11.900002 -1.516600
			CHANNELS 3 Xrotation Yrotation Zrotation
			JOINT newVegas:Spine2
			{
				OFFSET 0.000000 13.600006 -2.842500
				CHANNELS 3 Xrotation Yrotation Zrotation
				JOINT newVegas:Neck
				{
					OFFSET 0.000000 9.624100 -2.890100
					CHANNELS 3 Xrotation Yrotation Zrotation
					JOINT newVegas:Head
					{
						OFFSET 0.000000 14.068802 -1.351900
						CHANNELS 3 Xrotation Yrotation Zrotation
						JOINT newVegas:Hair_Back
						{
							OFFSET 0.000000 3.231903 -17.524799
							CHANNELS 3 Xrotation Yrotation Zrotation
							End Site
							{
								OFFSET 0.000000 19.849884 0.000000
							}
						}
						JOINT newVegas:Hair_Front
						{
							OFFSET 0.000000 31.260406 4.573800
							CHANNELS 3 Xrotation Yrotation Zrotation
							JOINT newVegas:Hair_Front1
							{
								OFFSET 0.000000 2.284103 11.993300
								CHANNELS 3 Xrotation Yrotation Zrotation
								JOINT newVegas:Hair_Front2
								{
									OFFSET 0.000000 2.284103 11.993300
									CHANNELS 3 Xrotation Yrotation Zrotation
									End Site
									{
										OFFSET 0.000000 12.208862 0.000000
									}
								}
							}
						}
						JOINT newVegas:Jowel
						{
							OFFSET 0.000000 -7.458206 6.864100
							CHANNELS 3 Xrotation Yrotation Zrotation
							End Site
							{
								OFFSET 0.000000 19.849884 0.000000
							}
						}
					}
				}
				JOINT newVegas:LeftShoulder
				{
					OFFSET 15.263000 10.923401 -0.547700
					CHANNELS 3 Xrotation Yrotation Zrotation
					JOINT newVegas:LeftArm
					{
						OFFSET 25.438599 -2.830597 -13.032500
						CHANNELS 3 Xrotation Yrotation Zrotation
						JOINT newVegas:LeftForeArm
						{
							OFFSET 29.960503 0.000000 0.000000
							CHANNELS 3 Xrotation Yrotation Zrotation
							JOINT newVegas:LeftHand
							{
								OFFSET 27.849251 0.000000 0.000000
								CHANNELS 3 Xrotation Yrotation Zrotation
								JOINT newVegas:LeftHandThumb1
								{
									OFFSET 4.487587 -3.305161 6.305391
									CHANNELS 3 Xrotation Yrotation Zrotation
									JOINT newVegas:LeftHandThumb2
									{
										OFFSET 5.480453 -3.164139 3.164143
										CHANNELS 3 Xrotation Yrotation Zrotation
										JOINT newVegas:LeftHandThumb3
										{
											OFFSET 5.159721 -2.978973 2.978967
											CHANNELS 3 Xrotation Yrotation Zrotation
											End Site
											{
												OFFSET 2.494507 5.926697 1.738678
											}
										}
									}
								}
								JOINT newVegas:LeftHandIndex1
								{
									OFFSET 18.578728 -0.527832 5.208049
									CHANNELS 3 Xrotation Yrotation Zrotation
									JOINT newVegas:LeftHandIndex2
									{
										OFFSET 3.192009 0.000000 0.000000
										CHANNELS 3 Xrotation Yrotation Zrotation
										JOINT newVegas:LeftHandIndex3
										{
											OFFSET 3.835129 0.000000 0.000000
											CHANNELS 3 Xrotation Yrotation Zrotation
											End Site
											{
												OFFSET -0.034599 3.816971 0.371180
											}
										}
									}
								}
								JOINT newVegas:LeftHandMiddle1
								{
									OFFSET 18.476105 0.000000 0.000000
									CHANNELS 3 Xrotation Yrotation Zrotation
									JOINT newVegas:LeftHandMiddle2
									{
										OFFSET 3.324875 0.000000 0.000000
										CHANNELS 3 Xrotation Yrotation Zrotation
										JOINT newVegas:LeftHandMiddle3
										{
											OFFSET 4.596550 0.000000 0.000000
											CHANNELS 3 Xrotation Yrotation Zrotation
											End Site
											{
												OFFSET 0.057701 4.578827 0.399218
											}
										}
									}
								}
								JOINT newVegas:LeftHandRing1
								{
									OFFSET 17.732719 0.121887 -4.201567
									CHANNELS 3 Xrotation Yrotation Zrotation
									JOINT newVegas:LeftHandRing2
									{
										OFFSET 2.733170 0.000000 0.000000
										CHANNELS 3 Xrotation Yrotation Zrotation
										JOINT newVegas:LeftHandRing3
										{
											OFFSET 3.178268 0.000000 0.000000
											CHANNELS 3 Xrotation Yrotation Zrotation
											End Site
											{
												OFFSET 0.119102 3.170624 0.185394
											}
										}
									}
								}
								JOINT newVegas:LeftHandPinky1
								{
									OFFSET 15.989624 -0.606689 -7.535461
									CHANNELS 3 Xrotation Yrotation Zrotation
									JOINT newVegas:LeftHandPinky2
									{
										OFFSET 2.538986 0.000000 0.000000
										CHANNELS 3 Xrotation Yrotation Zrotation
										JOINT newVegas:LeftHandPinky3
										{
											OFFSET 2.593102 0.000000 0.000000
											CHANNELS 3 Xrotation Yrotation Zrotation
											End Site
											{
												OFFSET -0.150902 2.584198 0.152708
											}
										}
									}
								}
							}
							JOINT newVegas:Left_Sleeve
							{
								OFFSET 0.267448 -0.649796 0.577675
								CHANNELS 3 Xrotation Yrotation Zrotation
								End Site
								{
									OFFSET 0.000000 15.991241 0.000000
								}
							}
							JOINT newVegas:Left_CapeC
							{
								OFFSET 15.715958 -8.608795 -6.935905
								CHANNELS 3 Xrotation Yrotation Zrotation
								JOINT newVegas:Left_CapeC1
								{
									OFFSET 0.000000 -8.688499 0.000000
									CHANNELS 3 Xrotation Yrotation Zrotation
									End Site
									{
										OFFSET 0.000000 8.688499 0.000000
									}
								}
							}
						}
						JOINT newVegas:Left_CapeB
						{
							OFFSET 26.118385 -8.608795 -7.079235
							CHANNELS 3 Xrotation Yrotation Zrotation
							JOINT newVegas:Left_CapeB1
							{
								OFFSET 0.000000 -8.688499 0.000000
								CHANNELS 3 Xrotation Yrotation Zrotation
								End Site
								{
									OFFSET 0.000000 8.688499 0.000000
								}
							}
						}
						JOINT newVegas:Left_CapeA
						{
							OFFSET 5.115639 -8.608795 -10.395809
							CHANNELS 3 Xrotation Yrotation Zrotation
							JOINT newVegas:Left_CapeA1
							{
								OFFSET 0.000000 -8.688499 0.000000
								CHANNELS 3 Xrotation Yrotation Zrotation
								End Site
								{
									OFFSET 0.000000 8.688499 0.000000
								}
							}
						}
					}
				}
				JOINT newVegas:RightShoulder
				{
					OFFSET -15.263000 10.923401 -0.547700
					CHANNELS 3 Xrotation Yrotation Zrotation
					JOINT newVegas:RightArm
					{
						OFFSET -25.438599 -2.830597 -13.032500
						CHANNELS 3 Xrotation Yrotation Zrotation
						JOINT newVegas:RightForeArm
						{
							OFFSET -29.960503 0.000000 0.000000
							CHANNELS 3 Xrotation Yrotation Zrotation
							JOINT newVegas:RightHand
							{
								OFFSET -27.849251 0.000000 0.000000
								CHANNELS 3 Xrotation Yrotation Zrotation
								JOINT newVegas:RightHandThumb1
								{
									OFFSET -4.487587 -3.305161 6.305391
									CHANNELS 3 Xrotation Yrotation Zrotation
									JOINT newVegas:RightHandThumb2
									{
										OFFSET -5.480453 -3.164139 3.164143
										CHANNELS 3 Xrotation Yrotation Zrotation
										JOINT newVegas:RightHandThumb3
										{
											OFFSET -5.159721 -2.978973 2.978967
											CHANNELS 3 Xrotation Yrotation Zrotation
											End Site
											{
												OFFSET -2.494507 5.926697 1.738678
											}
										}
									}
								}
								JOINT newVegas:RightHandIndex1
								{
									OFFSET -18.578728 -0.527832 5.208049
									CHANNELS 3 Xrotation Yrotation Zrotation
									JOINT newVegas:RightHandIndex2
									{
										OFFSET -3.192009 0.000000 0.000000
										CHANNELS 3 Xrotation Yrotation Zrotation
										JOINT newVegas:RightHandIndex3
										{
											OFFSET -3.835129 0.000000 0.000000
											CHANNELS 3 Xrotation Yrotation Zrotation
											End Site
											{
												OFFSET 0.034599 3.816971 0.371180
											}
										}
									}
								}
								JOINT newVegas:RightHandMiddle1
								{
									OFFSET -18.476105 0.000000 0.000000
									CHANNELS 3 Xrotation Yrotation Zrotation
									JOINT newVegas:RightHandMiddle2
									{
										OFFSET -3.324875 0.000000 0.000000
										CHANNELS 3 Xrotation Yrotation Zrotation
										JOINT newVegas:RightHandMiddle3
										{
											OFFSET -4.596550 0.000000 0.000000
											CHANNELS 3 Xrotation Yrotation Zrotation
											End Site
											{
												OFFSET -0.057701 4.578827 0.399218
											}
										}
									}
								}
								JOINT newVegas:RightHandRing1
								{
									OFFSET -17.732719 0.121887 -4.201567
									CHANNELS 3 Xrotation Yrotation Zrotation
									JOINT newVegas:RightHandRing2
									{
										OFFSET -2.733170 0.000000 0.000000
										CHANNELS 3 Xrotation Yrotation Zrotation
										JOINT newVegas:RightHandRing3
										{
											OFFSET -3.178268 0.000000 0.000000
											CHANNELS 3 Xrotation Yrotation Zrotation
											End Site
											{
												OFFSET -0.119102 3.170624 0.185394
											}
										}
									}
								}
								JOINT newVegas:RightHandPinky1
								{
									OFFSET -15.989624 -0.606689 -7.535461
									CHANNELS 3 Xrotation Yrotation Zrotation
									JOINT newVegas:RightHandPinky2
									{
										OFFSET -2.538986 0.000000 0.000000
										CHANNELS 3 Xrotation Yrotation Zrotation
										JOINT newVegas:RightHandPinky3
										{
											OFFSET -2.593102 0.000000 0.000000
											CHANNELS 3 Xrotation Yrotation Zrotation
											End Site
											{
												OFFSET 0.150902 2.584198 0.152708
											}
										}
									}
								}
							}
							JOINT newVegas:Right_CapeC
							{
								OFFSET -15.715958 -8.608795 -6.935905
								CHANNELS 3 Xrotation Yrotation Zrotation
								JOINT newVegas:Right_CapeC1
								{
									OFFSET 0.000000 -8.688499 0.000000
									CHANNELS 3 Xrotation Yrotation Zrotation
									End Site
									{
										OFFSET 0.000000 8.688499 0.000000
									}
								}
							}
							JOINT newVegas:Right_Sleeve
							{
								OFFSET -0.267448 -0.649994 0.577675
								CHANNELS 3 Xrotation Yrotation Zrotation
								End Site
								{
									OFFSET 0.000000 15.991302 0.000000
								}
							}
						}
						JOINT newVegas:Right_CapeA
						{
							OFFSET -5.115540 -8.608795 -10.395824
							CHANNELS 3 Xrotation Yrotation Zrotation
							JOINT newVegas:Right_CapeA1
							{
								OFFSET 0.000000 -8.688499 0.000000
								CHANNELS 3 Xrotation Yrotation Zrotation
								End Site
								{
									OFFSET 0.000000 8.688499 0.000000
								}
							}
						}
						JOINT newVegas:Right_CapeB
						{
							OFFSET -26.118187 -8.608795 -7.079266
							CHANNELS 3 Xrotation Yrotation Zrotation
							JOINT newVegas:Right_CapeB1
							{
								OFFSET 0.000000 -8.688499 0.000000
								CHANNELS 3 Xrotation Yrotation Zrotation
								End Site
								{
									OFFSET 0.000000 8.688499 0.000000
								}
							}
						}
					}
				}
				JOINT newVegas:Left_Collar
				{
					OFFSET 18.625099 8.655502 8.828100
					CHANNELS 3 Xrotation Yrotation Zrotation
					JOINT newVegas:Left_Collar1
					{
						OFFSET 14.783401 10.540405 -1.259500
						CHANNELS 3 Xrotation Yrotation Zrotation
						End Site
						{
							OFFSET 0.000000 18.199875 0.000000
						}
					}
				}
				JOINT newVegas:Collar_Back
				{
					OFFSET 0.000000 15.630707 -20.132601
					CHANNELS 3 Xrotation Yrotation Zrotation
					End Site
					{
						OFFSET 0.000000 22.523010 0.000000
					}
				}
				JOINT newVegas:Left_Peck
				{
					OFFSET 17.239599 -5.132599 25.482599
					CHANNELS 3 Xrotation Yrotation Zrotation
					End Site
					{
						OFFSET 0.000000 22.523010 0.000000
					}
				}
				JOINT newVegas:Right_Peck
				{
					OFFSET -17.239599 -5.132202 25.482599
					CHANNELS 3 Xrotation Yrotation Zrotation
					End Site
					{
						OFFSET 0.000000 22.523010 0.000000
					}
				}
				JOINT newVegas:Right_Collar
				{
					OFFSET -18.625099 8.655792 8.828100
					CHANNELS 3 Xrotation Yrotation Zrotation
					JOINT newVegas:Right_Collar1
					{
						OFFSET -14.783401 10.539993 -1.259500
						CHANNELS 3 Xrotation Yrotation Zrotation
						End Site
						{
							OFFSET 0.000000 18.199631 0.000000
						}
					}
				}
			}
		}
		JOINT newVegas:Belly
		{
			OFFSET 0.000000 -6.540398 9.014299
			CHANNELS 3 Xrotation Yrotation Zrotation
			End Site
			{
				OFFSET 0.000000 11.566666 0.000000
			}
		}
	}
	JOINT newVegas:ElvisFacialAnim_Joint
	{
		OFFSET 1.000000 -95.330101 -8.825800
		CHANNELS 3 Xrotation Yrotation Zrotation
		End Site
		{
			OFFSET 0.000000 35.315800 0.000000
		}
	}
}
MOTION
Frames: 4
Frame Time: 0.016667
-1.175071 16.235466 6.906624 -87.565580 -3.321288 2.007192 -0.000000 -0.000000 0.000000 -31.701732 17.782659 -7.213178 34.672216 -6.822886 -11.346291 -1.064384 7.863301 9.581494 0.000000 -0.000001 0.000002 -0.000000 -0.000000 -0.000003 -5.406501 -9.968168 -5.357909 -1.203994 -10.591972 4.728612 17.742350 -2.973198 29.770435 0.000001 0.000001 -0.000000 -0.000000 0.000001 -0.000000 0.697895 1.251725 -4.081476 -2.712463 0.550123 0.069934 -2.709993 0.572753 0.085568 1.875886 -0.066753 0.080354 1.875886 -0.066753 0.080355 0.000000 0.000000 0.000000 1.875875 -0.066753 0.080354 1.875891 -0.066754 0.080354 -0.000000 0.000000 -0.000000 0.000000 0.000000 0.000000 1.279309 -13.498957 -1.883384 20.483964 -1.014538 -70.993464 0.000021 -137.491489 0.000013 -17.619168 18.840486 -43.362801 -7.220051 -16.942325 15.004577 7.558152 31.509544 -3.040779 0.000002 -0.000002 -0.000003 -0.024122 4.029261 2.883324 0.551247 2.482838 -25.032239 0.000000 -0.000001 -0.000000 -0.237387 3.164813 12.085509 0.825493 3.000276 -30.761085 -0.000001 0.000000 -0.000000 -0.227152 2.636227 15.396433 0.647044 2.678215 -27.159655 0.000001 -0.000001 -0.000000 -1.716314 2.384069 10.103015 0.425830 2.194579 -21.959565 0.000001 0.000004 -0.000000 0.000000 0.000000 -0.000000 0.000000 0.000000 -0.000000 -0.000000 0.000001 -0.000001 0.000001 -0.000001 0.000001 0.000002 -0.000001 0.000001 0.000001 -0.000001 0.000001 0.000002 -0.000002 0.000001 0.515810 6.973514 0.064737 15.875310 6.901687 66.846501 -0.000010 133.088012 -0.000014 -16.503247 -12.599695 49.917410 -19.372331 9.812718 -17.628160 16.805754 -33.149124 6.482054 0.000001 -0.000002 0.000003 -0.578709 -1.290236 19.415303 0.000001 0.000002 0.000001 -0.000001 0.000000 -0.000000 0.900202 -7.884224 9.062697 0.294484 -1.631359 20.463675 -0.000001 0.000000 -0.000002 0.740075 -10.091154 4.911397 1.354394 -3.285242 44.799966 -0.000002 0.000000 0.000005 0.507050 -5.672366 8.465991 1.111092 -3.020960 40.379061 -0.000001 0.000003 -0.000004 0.000003 0.000003 0.000002 0.000001 0.000000 0.000001 0.000003 0.000002 0.000001 -0.000000 0.000002 0.000002 0.000000 0.000001 0.000001 -0.000000 0.000002 0.000002 0.000000 0.000001 0.000002 -0.000000 0.000000 -0.000000 -0.000000 0.000000 -0.000000 -0.000000 0.000000 -0.000000 -0.000000 0.000000 -0.000000 -0.000000 0.000000 -0.000000 -0.000000 0.000000 -0.000000 -0.000000 0.000000 -0.000000 -0.000000 0.000000 0.000000 -0.000000 -0.000000 0.000000 
-1.174933 16.234825 6.906662 -87.569924 -3.322135 2.005605 0.000000 -0.000000 -0.000000 -31.697416 17.780210 -7.210732 34.668702 -6.823333 -11.345622 -1.056202 7.858716 9.568548 -0.000000 -0.000000 0.000002 -0.000000 -0.000000 0.000000 -5.407716 -9.970298 -5.356056 -1.203920 -10.591688 4.728054 17.743776 -2.977046 29.766091 0.000000 0.000001 -0.000001 -0.000000 0.000001 0.000000 0.705053 1.260645 -4.076750 -2.713546 0.552117 0.068063 -2.711030 0.574704 0.083783 1.876714 -0.067526 0.080128 1.876732 -0.067527 0.080128 0.000000 0.000000 0.000000 1.876643 -0.067527 0.080128 1.876791 -0.067523 0.080127 -0.000000 -0.000000 -0.000000 0.000000 0.000000 -0.000000 1.279891 -13.506574 -1.882613 20.471325 -1.017557 -70.987140 0.000036 -137.488197 0.000038 -17.622325 18.842183 -43.369522 -7.219513 -16.942867 15.007531 7.558159 31.509544 -3.040775 0.000002 -0.000001 -0.000004 -0.024119 4.029261 2.883322 0.551028 2.482374 -25.027237 0.000001 -0.000001 0.000000 -0.237388 3.164812 12.085506 0.825493 3.000278 -30.761085 0.000000 0.000000 -0.000000 -0.227153 2.636224 15.396430 0.646793 2.677721 -27.154274 0.000001 -0.000001 0.000001 -1.716317 2.384070 10.103023 0.425638 2.194093 -21.954538 -0.000000 -0.000002 0.000000 -0.000000 0.000001 0.000002 -0.000000 0.000001 0.000002 -0.000000 0.000002 0.000002 0.000002 0.000001 0.000001 0.000002 0.000002 -0.000000 0.000002 0.000001 0.000001 0.000002 -0.000000 0.000001 0.515557 6.970728 0.064773 15.874029 6.887360 66.861159 0.000032 133.090443 -0.000055 -16.498011 -12.596063 49.928276 -19.372327 9.812720 -17.628163 16.805754 -33.149124 6.482050 0.000002 -0.000004 -0.000001 -0.578708 -1.290236 19.415301 0.000001 0.000001 0.000001 -0.000000 0.000000 -0.000000 0.900199 -7.884222 9.062696 0.294486 -1.631361 20.463680 -0.000002 0.000000 0.000001 0.740075 -10.091153 4.911397 1.354390 -3.285238 44.799969 -0.000000 -0.000003 -0.000002 0.507051 -5.672366 8.465991 1.111094 -3.020958 40.379061 0.000000 -0.000000 0.000000 -0.000000 -0.000001 -0.000003 -0.000001 -0.000003 -0.000003 -0.000000 -0.000001 -0.000004 0.000001 -0.000001 -0.000001 0.000001 -0.000001 -0.000002 0.000001 -0.000001 -0.000001 0.000001 -0.000001 -0.000000 -0.000000 0.000000 -0.000000 -0.000000 0.000000 -0.000000 -0.000000 0.000000 -0.000000 -0.000000 0.000000 -0.000000 -0.000000 0.000000 -0.000000 -0.000000 0.000000 -0.000000 -0.000000 0.000000 -0.000000 -0.000000 0.000000 -0.000000 0.000000 -0.000000 -0.000000 
-1.174509 16.233871 6.906960 -87.570176 -3.321414 2.003180 0.000000 -0.000000 0.000000 -31.698942 17.779163 -7.207330 34.666704 -6.824735 -11.345555 -1.047855 7.857825 9.560354 -0.000000 -0.000001 0.000002 -0.000000 -0.000000 -0.000000 -5.408274 -9.972513 -5.354289 -1.205120 -10.591419 4.727397 17.745590 -2.980574 29.761911 0.000002 0.000001 -0.000002 -0.000000 -0.000001 -0.000001 0.707782 1.266647 -4.070730 -2.714814 0.553227 0.066522 -2.712317 0.575769 0.082299 1.877580 -0.068259 0.080087 1.877617 -0.068259 0.080087 -0.000000 -0.000000 0.000000 1.877569 -0.068258 0.080087 1.877621 -0.068263 0.080087 -0.000000 -0.000000 -0.000000 -0.000000 -0.000000 -0.000000 1.280317 -13.511005 -1.881051 20.463066 -1.020427 -70.982447 0.000070 -137.485096 0.000074 -17.625465 18.842375 -43.375516 -7.217999 -16.944357 15.015877 7.558158 31.509548 -3.040768 0.000000 -0.000002 -0.000003 -0.024123 4.029259 2.883324 0.550413 2.481061 -25.013024 0.000001 -0.000001 0.000000 -0.237389 3.164810 12.085509 0.825491 3.000275 -30.761085 0.000000 -0.000000 0.000000 -0.227154 2.636222 15.396443 0.646077 2.676329 -27.138963 0.000000 -0.000001 0.000001 -1.716318 2.384075 10.103027 0.425089 2.192742 -21.940275 -0.000001 0.000002 0.000001 0.000001 -0.000000 -0.000000 0.000001 -0.000000 -0.000000 0.000001 0.000000 -0.000000 0.000003 -0.000002 0.000001 0.000003 -0.000001 0.000002 0.000003 -0.000002 0.000001 0.000003 -0.000003 0.000001 0.515696 6.970293 0.064802 15.871027 6.874119 66.875270 0.000041 133.093722 -0.000037 -16.491420 -12.597518 49.941746 -19.372332 9.812721 -17.628158 16.805749 -33.149121 6.482053 0.000000 -0.000001 0.000001 -0.578706 -1.290236 19.415304 0.000001 0.000001 0.000001 -0.000002 0.000000 -0.000000 0.900202 -7.884223 9.062696 0.294487 -1.631362 20.463680 -0.000002 0.000001 0.000000 0.740074 -10.091154 4.911401 1.354392 -3.285239 44.799972 0.000000 0.000000 0.000003 0.507051 -5.672363 8.465993 1.111098 -3.020953 40.379064 0.000001 -0.000000 0.000003 0.000002 0.000001 0.000001 0.000002 -0.000002 -0.000001 0.000002 0.000000 -0.000000 0.000002 0.000000 -0.000001 0.000002 0.000000 -0.000001 0.000002 0.000000 -0.000001 0.000002 -0.000000 -0.000001 0.000000 0.000000 -0.000000 0.000000 0.000000 -0.000000 0.000000 0.000000 -0.000000 0.000000 0.000000 -0.000000 0.000000 0.000000 -0.000000 0.000000 0.000000 -0.000000 0.000000 0.000000 -0.000000 0.000000 -0.000000 -0.000000 0.000000 -0.000000 0.000000 
-1.173862 16.232681 6.907417 -87.567998 -3.318770 2.000952 0.000000 -0.000000 0.000000 -31.703993 17.779824 -7.205492 34.666851 -6.824766 -11.344481 -1.040522 7.858772 9.558343 0.000000 0.000000 -0.000000 0.000000 -0.000000 -0.000002 -5.409089 -9.974736 -5.352820 -1.205887 -10.590869 4.726684 17.747010 -2.984021 29.758045 0.000001 0.000001 0.000000 -0.000000 -0.000000 0.000000 0.707970 1.270129 -4.064553 -2.716207 0.553642 0.065173 -2.713715 0.576141 0.080982 1.878464 -0.068930 0.080208 1.878457 -0.068930 0.080207 0.000000 0.000000 0.000000 1.878564 -0.068927 0.080208 1.878355 -0.068933 0.080208 0.000000 -0.000000 0.000000 0.000000 0.000000 -0.000000 1.280702 -13.512914 -1.878504 20.458068 -1.023373 -70.979401 -0.000019 -137.481791 -0.000016 -17.628582 18.841792 -43.381287 -7.215864 -16.946456 15.027594 7.558159 31.509544 -3.040771 0.000001 -0.000003 -0.000003 -0.024125 4.029259 2.883327 0.549553 2.479208 -24.993078 0.000002 -0.000001 0.000001 -0.237389 3.164807 12.085519 0.825491 3.000278 -30.761079 0.000001 0.000001 -0.000000 -0.227159 2.636221 15.396437 0.645080 2.674378 -27.117477 -0.000000 -0.000001 -0.000000 -1.716319 2.384075 10.103027 0.424321 2.190844 -21.920261 -0.000000 -0.000002 0.000001 -0.000001 0.000004 -0.000000 -0.000001 0.000004 -0.000000 -0.000001 0.000004 -0.000001 0.000000 -0.000002 0.000001 0.000000 0.000000 0.000002 0.000000 -0.000002 0.000001 0.000001 -0.000002 0.000001 0.516048 6.971514 0.064826 15.867209 6.862415 66.888862 0.000043 133.097178 -0.000040 -16.483943 -12.601871 49.956434 -19.372329 9.812718 -17.628162 16.805750 -33.149124 6.482053 0.000000 0.000000 -0.000000 -0.578704 -1.290237 19.415301 0.000002 0.000001 0.000001 0.000000 -0.000000 -0.000000 0.900203 -7.884222 9.062699 0.294484 -1.631360 20.463677 -0.000002 -0.000001 0.000001 0.740077 -10.091155 4.911397 1.354392 -3.285241 44.799969 0.000001 -0.000001 0.000002 0.507052 -5.672365 8.465990 1.111093 -3.020962 40.379064 0.000001 0.000002 -0.000002 0.000001 0.000003 -0.000000 0.000001 -0.000001 0.000000 0.000001 0.000002 -0.000001 0.000000 0.000001 0.000001 0.000001 0.000000 0.000001 0.000000 0.000001 0.000001 0.000001 -0.000000 0.000001 0.000000 -0.000000 0.000000 0.000000 -0.000000 0.000000 0.000000 -0.000000 0.000000 0.000000 -0.000000 0.000000 0.000000 -0.000000 0.000000 0.000000 -0.000000 0.000000 0.000000 -0.000000 0.000000 0.000000 0.000000 0.000000 0.000000 -0.000000 0.000000 
